<svg width="24" height="18" viewBox="0 0 24 18" fill="none" xmlns="http://www.w3.org/2000/svg">
<path d="M2.56027 1.65179C2.66268 2.62717 3.80242 13.453 3.97833 15.1254C4.1113 16.3899 5.17092 17.3438 6.4428 17.3438H19.3127C20.4731 17.3438 21.4923 16.5195 21.7359 15.3848L23.7197 6.12731C23.8246 5.63673 23.704 5.13211 23.3885 4.74311C23.073 4.35329 22.6047 4.12947 22.1034 4.12947H4.48213L4.12534 0.740001C4.08074 0.318795 3.72644 0 3.30358 0H0.825894C0.370001 0 0 0.370001 0 0.825894C0 1.28179 0.370001 1.65179 0.825894 1.65179H2.56027ZM22.1034 5.78126L20.1204 15.0387C20.0387 15.417 19.6992 15.692 19.3119 15.692H6.4428C6.01829 15.692 5.66564 15.374 5.62104 14.9528L4.65557 5.78126H22.1034Z" fill="#7E7E7E"/>
</svg>
